<?xml version="1.0" encoding="UTF-8" standalone="no"?>
<svg
   width="54"
   height="54"
   viewBox="0 0 54 54"
   fill="none"
   version="1.1"
   id="svg1065"
   sodipodi:docname="sound_off.svg"
   inkscape:version="1.2.1 (1:1.2.1+202210291244+9c6d41e410)"
   xmlns:inkscape="http://www.inkscape.org/namespaces/inkscape"
   xmlns:sodipodi="http://sodipodi.sourceforge.net/DTD/sodipodi-0.dtd"
   xmlns="http://www.w3.org/2000/svg"
   xmlns:svg="http://www.w3.org/2000/svg">
  <sodipodi:namedview
     id="namedview1067"
     pagecolor="#ffffff"
     bordercolor="#666666"
     borderopacity="1.0"
     inkscape:showpageshadow="2"
     inkscape:pageopacity="0.0"
     inkscape:pagecheckerboard="0"
     inkscape:deskcolor="#d1d1d1"
     showgrid="false"
     inkscape:zoom="17.706897"
     inkscape:cx="25.639727"
     inkscape:cy="28.971762"
     inkscape:window-width="843"
     inkscape:window-height="1404"
     inkscape:window-x="1709"
     inkscape:window-y="4"
     inkscape:window-maximized="1"
     inkscape:current-layer="svg1065" />
  <circle
     cx="27"
     cy="27"
     r="27"
     fill="#2f373c"
     id="circle1029" />
  <g
     filter="url(#filter0_d_936_911)"
     id="g1033">
    <circle
       cx="27"
       cy="27"
       r="23"
       fill="url(#paint0_linear_936_911)"
       shape-rendering="crispEdges"
       id="circle1031"
       style="fill:url(#paint0_linear_936_911)" />
  </g>
  <path
     d="m 15,30.3291 v -6.659 c 0,-0.6458 0.5824,-1.17 1.3,-1.17 h 4.6618 c 0.172,-6e-4 0.3422,-0.0312 0.5001,-0.0902 0.158,-0.059 0.3005,-0.145 0.419,-0.253 l 3.9,-3.8115 C 26.5999,17.6074 28,18.1305 28,19.1734 v 15.6535 c 0,1.0507 -1.417,1.5694 -2.2308,0.8167 l -3.887,-3.7902 c -0.1188,-0.111 -0.2628,-0.1996 -0.4229,-0.2604 -0.1602,-0.0608 -0.333,-0.0924 -0.5079,-0.0928 H 16.3 c -0.7176,0 -1.3,-0.5243 -1.3,-1.1711 z"
     stroke="#8c9cb0"
     stroke-width="2.44874"
     stroke-linecap="round"
     stroke-linejoin="round"
     id="path1035" />
  <path
     d="m 33.2098,22.2098 c 0.0663,-0.0665 0.1451,-0.1193 0.2319,-0.1553 C 33.5285,22.0185 33.6215,22 33.7154,22 c 0.0939,0 0.1869,0.0185 0.2737,0.0545 0.0868,0.036 0.1656,0.0888 0.2319,0.1553 l 3.7792,3.7806 3.7792,-3.7806 c 0.0664,-0.0664 0.1452,-0.1191 0.2319,-0.155 0.0868,-0.0359 0.1798,-0.0544 0.2737,-0.0544 0.0939,0 0.1868,0.0185 0.2736,0.0544 0.0868,0.0359 0.1656,0.0886 0.232,0.155 0.0664,0.0664 0.119,0.1452 0.155,0.232 0.0359,0.0867 0.0544,0.1797 0.0544,0.2736 0,0.0939 -0.0185,0.1869 -0.0544,0.2736 -0.036,0.0868 -0.0886,0.1656 -0.155,0.232 l -3.7806,3.7792 3.7806,3.7792 c 0.0664,0.0664 0.119,0.1452 0.155,0.2319 C 42.9815,31.0981 43,31.1911 43,31.285 c 0,0.0939 -0.0185,0.1868 -0.0544,0.2736 -0.036,0.0868 -0.0886,0.1656 -0.155,0.232 -0.0664,0.0664 -0.1452,0.119 -0.232,0.155 C 42.4718,31.9815 42.3789,32 42.285,32 42.1911,32 42.0981,31.9815 42.0113,31.9456 41.9246,31.9096 41.8458,31.857 41.7794,31.7906 L 38.0002,28.01 34.221,31.7906 c -0.0664,0.0664 -0.1452,0.119 -0.232,0.155 C 33.9023,31.9815 33.8093,32 33.7154,32 c -0.0939,0 -0.1869,-0.0185 -0.2736,-0.0544 -0.0868,-0.036 -0.1656,-0.0886 -0.232,-0.155 -0.0664,-0.0664 -0.1191,-0.1452 -0.155,-0.232 -0.0359,-0.0868 -0.0544,-0.1797 -0.0544,-0.2736 0,-0.0939 0.0185,-0.1869 0.0544,-0.2737 0.0359,-0.0867 0.0886,-0.1655 0.155,-0.2319 L 36.9904,27.0002 33.2098,23.221 C 33.1433,23.1547 33.0905,23.0759 33.0545,22.9891 33.0185,22.9023 33,22.8093 33,22.7154 c 0,-0.0939 0.0185,-0.1869 0.0545,-0.2737 0.036,-0.0868 0.0888,-0.1656 0.1553,-0.2319 z"
     fill="#8c9cb0"
     id="path1037" />
  <defs
     id="defs1063">
    <filter
       id="filter0_d_936_911"
       x="0"
       y="4"
       width="54"
       height="54"
       filterUnits="userSpaceOnUse"
       color-interpolation-filters="sRGB">
      <feFlood
         flood-opacity="0"
         result="BackgroundImageFix"
         id="feFlood1039" />
      <feColorMatrix
         in="SourceAlpha"
         type="matrix"
         values="0 0 0 0 0 0 0 0 0 0 0 0 0 0 0 0 0 0 127 0"
         result="hardAlpha"
         id="feColorMatrix1041" />
      <feOffset
         dy="4"
         id="feOffset1043" />
      <feGaussianBlur
         stdDeviation="2"
         id="feGaussianBlur1045" />
      <feComposite
         in2="hardAlpha"
         operator="out"
         id="feComposite1047" />
      <feColorMatrix
         type="matrix"
         values="0 0 0 0 0 0 0 0 0 0 0 0 0 0 0 0 0 0 0.25 0"
         id="feColorMatrix1049" />
      <feBlend
         mode="normal"
         in2="BackgroundImageFix"
         result="effect1_dropShadow_936_911"
         id="feBlend1051" />
      <feBlend
         mode="normal"
         in="SourceGraphic"
         in2="effect1_dropShadow_936_911"
         result="shape"
         id="feBlend1053" />
    </filter>
    <linearGradient
       id="paint0_linear_936_911"
       x1="27"
       y1="4"
       x2="27"
       y2="50"
       gradientUnits="userSpaceOnUse">
      <stop
         stop-color="#292D30"
         id="stop1056" />
      <stop
         offset="0.961458"
         stop-color="#313538"
         id="stop1058" />
      <stop
         offset="1"
         stop-color="#292D30"
         stop-opacity="0"
         id="stop1060" />
    </linearGradient>
  </defs>
</svg>
