<?xml version="1.0" encoding="UTF-8" standalone="no"?>
<svg
   width="54"
   height="54"
   viewBox="0 0 54 54"
   fill="none"
   version="1.1"
   id="svg1416"
   sodipodi:docname="techniques(1).svg"
   inkscape:version="1.2.1 (1:1.2.1+202210291244+9c6d41e410)"
   xmlns:inkscape="http://www.inkscape.org/namespaces/inkscape"
   xmlns:sodipodi="http://sodipodi.sourceforge.net/DTD/sodipodi-0.dtd"
   xmlns="http://www.w3.org/2000/svg"
   xmlns:svg="http://www.w3.org/2000/svg">
  <sodipodi:namedview
     id="namedview1418"
     pagecolor="#ffffff"
     bordercolor="#666666"
     borderopacity="1.0"
     inkscape:showpageshadow="2"
     inkscape:pageopacity="0.0"
     inkscape:pagecheckerboard="0"
     inkscape:deskcolor="#d1d1d1"
     showgrid="false"
     inkscape:zoom="17.706897"
     inkscape:cx="25.639727"
     inkscape:cy="28.971762"
     inkscape:window-width="843"
     inkscape:window-height="1404"
     inkscape:window-x="1709"
     inkscape:window-y="4"
     inkscape:window-maximized="1"
     inkscape:current-layer="svg1416" />
  <circle
     cx="27"
     cy="27"
     r="27"
     fill="#2f373c"
     id="circle1382" />
  <g
     filter="url(#filter0_d_936_913)"
     id="g1386">
    <circle
       cx="27"
       cy="27"
       r="23"
       fill="url(#paint0_linear_936_913)"
       shape-rendering="crispEdges"
       id="circle1384"
       style="fill:url(#paint0_linear_936_913)" />
  </g>
  <path
     d="M 38,24 V 21.4286 C 38,21.3125 37.9611,21.2121 37.8834,21.1272 37.8056,21.0424 37.7135,21 37.6071,21 H 20.7143 v -2.5714 c 0,-0.1161 -0.0389,-0.2165 -0.1166,-0.3014 C 20.5199,18.0424 20.4278,18 20.3214,18 c -0.0982,0 -0.1964,0.0446 -0.2946,0.1339 l -3.9163,4.2857 C 16.0368,22.5 16,22.5982 16,22.7143 c 0,0.125 0.0368,0.2277 0.1105,0.308 l 3.9286,4.2857 c 0.0736,0.0804 0.1677,0.1206 0.2823,0.1206 0.1064,0 0.1985,-0.0424 0.2763,-0.1273 0.0777,-0.0848 0.1166,-0.1852 0.1166,-0.3013 v -2.5714 h 16.8928 c 0.1064,0 0.1985,-0.0424 0.2763,-0.1273 C 37.9611,24.2165 38,24.1161 38,24 Z m 0,7.2857 c 0,-0.125 -0.0368,-0.2277 -0.1105,-0.308 L 33.9609,26.692 c -0.0736,-0.0804 -0.1677,-0.1206 -0.2823,-0.1206 -0.1064,0 -0.1985,0.0424 -0.2763,0.1273 -0.0777,0.0848 -0.1166,0.1852 -0.1166,0.3013 v 2.5714 H 16.3929 c -0.1064,0 -0.1985,0.0424 -0.2763,0.1273 C 16.0389,29.7835 16,29.8839 16,30 v 2.5714 c 0,0.1161 0.0389,0.2165 0.1166,0.3014 C 16.1944,32.9576 16.2865,33 16.3929,33 h 16.8928 v 2.5714 c 0,0.125 0.0368,0.2277 0.1105,0.3081 C 33.4699,35.9598 33.564,36 33.6786,36 c 0.0982,0 0.1964,-0.0446 0.2946,-0.1339 l 3.9163,-4.2724 C 37.9632,31.5134 38,31.4107 38,31.2857 Z"
     fill="#8c9cb0"
     id="path1388" />
  <defs
     id="defs1414">
    <filter
       id="filter0_d_936_913"
       x="0"
       y="4"
       width="54"
       height="54"
       filterUnits="userSpaceOnUse"
       color-interpolation-filters="sRGB">
      <feFlood
         flood-opacity="0"
         result="BackgroundImageFix"
         id="feFlood1390" />
      <feColorMatrix
         in="SourceAlpha"
         type="matrix"
         values="0 0 0 0 0 0 0 0 0 0 0 0 0 0 0 0 0 0 127 0"
         result="hardAlpha"
         id="feColorMatrix1392" />
      <feOffset
         dy="4"
         id="feOffset1394" />
      <feGaussianBlur
         stdDeviation="2"
         id="feGaussianBlur1396" />
      <feComposite
         in2="hardAlpha"
         operator="out"
         id="feComposite1398" />
      <feColorMatrix
         type="matrix"
         values="0 0 0 0 0 0 0 0 0 0 0 0 0 0 0 0 0 0 0.25 0"
         id="feColorMatrix1400" />
      <feBlend
         mode="normal"
         in2="BackgroundImageFix"
         result="effect1_dropShadow_936_913"
         id="feBlend1402" />
      <feBlend
         mode="normal"
         in="SourceGraphic"
         in2="effect1_dropShadow_936_913"
         result="shape"
         id="feBlend1404" />
    </filter>
    <linearGradient
       id="paint0_linear_936_913"
       x1="27"
       y1="4"
       x2="27"
       y2="50"
       gradientUnits="userSpaceOnUse">
      <stop
         stop-color="#292D30"
         id="stop1407" />
      <stop
         offset="0.961458"
         stop-color="#313538"
         id="stop1409" />
      <stop
         offset="1"
         stop-color="#292D30"
         stop-opacity="0"
         id="stop1411" />
    </linearGradient>
  </defs>
</svg>
