<?xml version="1.0" encoding="UTF-8"?>
<svg width="53" height="54" fill="none" version="1.1" viewBox="0 0 53 54" xml:space="preserve" xmlns="http://www.w3.org/2000/svg"><ellipse cx="26.5" cy="27" rx="26.5" ry="27" fill="#3e4041"/><ellipse cx="26.5" cy="27" rx="26.5" ry="27" fill="#2f373c"/><circle cx="26.5" cy="26.5" r="22.5" fill="url(#paint0_linear_451_170)"/><path transform="translate(-16,-20)" d="m46.75 58.25h-7.5c-0.745-0.0031-1.4586-0.3004-1.9853-0.8272-0.5268-0.5267-0.8241-1.2403-0.8272-1.9853v-16.875c0.0031-0.745 0.3004-1.4586 0.8272-1.9853 0.5267-0.5268 1.2403-0.8241 1.9853-0.8272h7.5c0.745 0.0031 1.4586 0.3004 1.9853 0.8272 0.5268 0.5267 0.8241 1.2403 0.8272 1.9853v16.875c-0.0031 0.745-0.3004 1.4586-0.8272 1.9853-0.5267 0.5268-1.2403 0.8241-1.9853 0.8272zm0.9375-19.688c0-0.2486-0.0988-0.4871-0.2746-0.6629s-0.4143-0.2746-0.6629-0.2746h-7.5c-0.2486 0-0.4871 0.0988-0.6629 0.2746s-0.2746 0.4143-0.2746 0.6629v16.875c0 0.2486 0.0988 0.4871 0.2746 0.6629s0.4143 0.2746 0.6629 0.2746h7.5c0.2486 0 0.4871-0.0988 0.6629-0.2746s0.2746-0.4143 0.2746-0.6629zm5.625 13.125v-9.375c0-0.2486-0.0988-0.4871-0.2746-0.6629s-0.4143-0.2746-0.6629-0.2746-0.4871 0.0988-0.6629 0.2746-0.2746 0.4143-0.2746 0.6629v9.375c0 0.2486 0.0988 0.4871 0.2746 0.6629s0.4143 0.2746 0.6629 0.2746 0.4871-0.0988 0.6629-0.2746 0.2746-0.4143 0.2746-0.6629zm3.75-1.875v-5.625c0-0.2486-0.0988-0.4871-0.2746-0.6629s-0.4143-0.2746-0.6629-0.2746-0.4871 0.0988-0.6629 0.2746-0.2746 0.4143-0.2746 0.6629v5.625c0 0.2486 0.0988 0.4871 0.2746 0.6629s0.4143 0.2746 0.6629 0.2746 0.4871-0.0988 0.6629-0.2746 0.2746-0.4143 0.2746-0.6629zm-22.5 1.875v-9.375c0-0.2486-0.0988-0.4871-0.2746-0.6629s-0.4143-0.2746-0.6629-0.2746-0.4871 0.0988-0.6629 0.2746-0.2746 0.4143-0.2746 0.6629v9.375c0 0.2486 0.0988 0.4871 0.2746 0.6629s0.4143 0.2746 0.6629 0.2746 0.4871-0.0988 0.6629-0.2746 0.2746-0.4143 0.2746-0.6629zm-3.75-1.875v-5.625c0-0.2486-0.0988-0.4871-0.2746-0.6629s-0.4143-0.2746-0.6629-0.2746-0.4871 0.0988-0.6629 0.2746-0.2746 0.4143-0.2746 0.6629v5.625c0 0.2486 0.0988 0.4871 0.2746 0.6629s0.4143 0.2746 0.6629 0.2746 0.4871-0.0988 0.6629-0.2746 0.2746-0.4143 0.2746-0.6629z" clip-path="url(#clipPath412)" fill="#8c9cb0"/><defs><linearGradient id="paint0_linear_451_170" x1="42.5" x2="42.5" y1="24" y2="69" gradientTransform="translate(-16,-20)" gradientUnits="userSpaceOnUse"><stop stop-color="#292D30" offset=".27951"/><stop stop-color="#323639" offset="1"/></linearGradient><clipPath id="clipPath412"><rect transform="scale(1,-1)" x="27" y="-62" width="30" height="30" fill="#fff"/></clipPath></defs></svg>
