<?xml version="1.0" encoding="UTF-8" standalone="no"?>
<svg
   width=""
   height=""
   viewBox="0 0 53 54"
   fill="none"
   version="1.1"
   id="svg97"
   sodipodi:docname="vibrate.svg"
   xml:space="preserve"
   inkscape:version="1.2 (1:1.2.1+202207142221+cd75a1ee6d)"
   xmlns:inkscape="http://www.inkscape.org/namespaces/inkscape"
   xmlns:sodipodi="http://sodipodi.sourceforge.net/DTD/sodipodi-0.dtd"
   xmlns="http://www.w3.org/2000/svg"
   xmlns:svg="http://www.w3.org/2000/svg"><sodipodi:namedview
     id="namedview99"
     pagecolor="#ffffff"
     bordercolor="#666666"
     borderopacity="1.0"
     inkscape:showpageshadow="2"
     inkscape:pageopacity="0.0"
     inkscape:pagecheckerboard="0"
     inkscape:deskcolor="#d1d1d1"
     showgrid="false"
     inkscape:zoom="10.810526"
     inkscape:cx="3.191334"
     inkscape:cy="20.165531"
     inkscape:window-width="1920"
     inkscape:window-height="1056"
     inkscape:window-x="2560"
     inkscape:window-y="0"
     inkscape:window-maximized="1"
     inkscape:current-layer="svg97" /><g
     id="g6914"><ellipse
       cx="26.5"
       cy="27"
       rx="26.5"
       ry="27"
       fill="#3e4041"
       id="ellipse2" /><ellipse
       cx="26.5"
       cy="27"
       rx="26.5"
       ry="27"
       fill="#2f373c"
       id="ellipse6" /><circle
       cx="26.5"
       cy="26.5"
       r="22.5"
       fill="url(#paint0_linear_451_170)"
       id="circle10"
       style="fill:url(#paint0_linear_451_170)" /><path
       d="m 46.75,58.25 h -7.5 c -0.745,-0.0031 -1.4586,-0.3004 -1.9853,-0.8272 -0.5268,-0.5267 -0.8241,-1.2403 -0.8272,-1.9853 v -16.875 c 0.0031,-0.745 0.3004,-1.4586 0.8272,-1.9853 0.5267,-0.5268 1.2403,-0.8241 1.9853,-0.8272 h 7.5 c 0.745,0.0031 1.4586,0.3004 1.9853,0.8272 0.5268,0.5267 0.8241,1.2403 0.8272,1.9853 v 16.875 c -0.0031,0.745 -0.3004,1.4586 -0.8272,1.9853 -0.5267,0.5268 -1.2403,0.8241 -1.9853,0.8272 z m 0.9375,-19.6875 c 0,-0.2486 -0.0988,-0.4871 -0.2746,-0.6629 C 47.2371,37.7238 46.9986,37.625 46.75,37.625 h -7.5 c -0.2486,0 -0.4871,0.0988 -0.6629,0.2746 -0.1758,0.1758 -0.2746,0.4143 -0.2746,0.6629 v 16.875 c 0,0.2486 0.0988,0.4871 0.2746,0.6629 0.1758,0.1758 0.4143,0.2746 0.6629,0.2746 h 7.5 c 0.2486,0 0.4871,-0.0988 0.6629,-0.2746 0.1758,-0.1758 0.2746,-0.4143 0.2746,-0.6629 z m 5.625,13.125 v -9.375 c 0,-0.2486 -0.0988,-0.4871 -0.2746,-0.6629 -0.1758,-0.1758 -0.4143,-0.2746 -0.6629,-0.2746 -0.2486,0 -0.4871,0.0988 -0.6629,0.2746 -0.1758,0.1758 -0.2746,0.4143 -0.2746,0.6629 v 9.375 c 0,0.2486 0.0988,0.4871 0.2746,0.6629 0.1758,0.1758 0.4143,0.2746 0.6629,0.2746 0.2486,0 0.4871,-0.0988 0.6629,-0.2746 0.1758,-0.1758 0.2746,-0.4143 0.2746,-0.6629 z m 3.75,-1.875 v -5.625 c 0,-0.2486 -0.0988,-0.4871 -0.2746,-0.6629 C 56.6121,43.3488 56.3736,43.25 56.125,43.25 c -0.2486,0 -0.4871,0.0988 -0.6629,0.2746 -0.1758,0.1758 -0.2746,0.4143 -0.2746,0.6629 v 5.625 c 0,0.2486 0.0988,0.4871 0.2746,0.6629 0.1758,0.1758 0.4143,0.2746 0.6629,0.2746 0.2486,0 0.4871,-0.0988 0.6629,-0.2746 0.1758,-0.1758 0.2746,-0.4143 0.2746,-0.6629 z m -22.5,1.875 v -9.375 c 0,-0.2486 -0.0988,-0.4871 -0.2746,-0.6629 -0.1758,-0.1758 -0.4143,-0.2746 -0.6629,-0.2746 -0.2486,0 -0.4871,0.0988 -0.6629,0.2746 -0.1758,0.1758 -0.2746,0.4143 -0.2746,0.6629 v 9.375 c 0,0.2486 0.0988,0.4871 0.2746,0.6629 0.1758,0.1758 0.4143,0.2746 0.6629,0.2746 0.2486,0 0.4871,-0.0988 0.6629,-0.2746 0.1758,-0.1758 0.2746,-0.4143 0.2746,-0.6629 z m -3.75,-1.875 v -5.625 c 0,-0.2486 -0.0988,-0.4871 -0.2746,-0.6629 C 30.3621,43.3488 30.1236,43.25 29.875,43.25 c -0.2486,0 -0.4871,0.0988 -0.6629,0.2746 -0.1758,0.1758 -0.2746,0.4143 -0.2746,0.6629 v 5.625 c 0,0.2486 0.0988,0.4871 0.2746,0.6629 0.1758,0.1758 0.4143,0.2746 0.6629,0.2746 0.2486,0 0.4871,-0.0988 0.6629,-0.2746 0.1758,-0.1758 0.2746,-0.4143 0.2746,-0.6629 z"
       fill="#8c9cb0"
       id="path14"
       clip-path="url(#clipPath412)"
       transform="translate(-16,-20)" /></g><defs
     id="defs95"><linearGradient
       id="paint0_linear_451_170"
       x1="42.5"
       y1="24"
       x2="42.5"
       y2="69"
       gradientUnits="userSpaceOnUse"
       gradientTransform="translate(-16,-20)"><stop
         offset="0.279514"
         stop-color="#292D30"
         id="stop87" /><stop
         offset="1"
         stop-color="#323639"
         id="stop89" /></linearGradient><clipPath
       clipPathUnits="userSpaceOnUse"
       id="clipPath412"><g
         id="g416"><rect
           width="30"
           height="30"
           fill="#ffffff"
           transform="scale(1,-1)"
           id="rect414"
           x="27"
           y="-62" /></g></clipPath></defs></svg>
