<?xml version="1.0" encoding="UTF-8" standalone="no"?>
<svg
   width="54"
   height="54"
   viewBox="0 0 54 54"
   fill="none"
   version="1.1"
   id="svg522"
   sodipodi:docname="vibrations_off.svg"
   inkscape:version="1.2.1 (1:1.2.1+202210291244+9c6d41e410)"
   xmlns:inkscape="http://www.inkscape.org/namespaces/inkscape"
   xmlns:sodipodi="http://sodipodi.sourceforge.net/DTD/sodipodi-0.dtd"
   xmlns="http://www.w3.org/2000/svg"
   xmlns:svg="http://www.w3.org/2000/svg">
  <sodipodi:namedview
     id="namedview524"
     pagecolor="#ffffff"
     bordercolor="#666666"
     borderopacity="1.0"
     inkscape:showpageshadow="2"
     inkscape:pageopacity="0.0"
     inkscape:pagecheckerboard="0"
     inkscape:deskcolor="#d1d1d1"
     showgrid="false"
     inkscape:zoom="17.706897"
     inkscape:cx="26.995131"
     inkscape:cy="28.971762"
     inkscape:window-width="504"
     inkscape:window-height="1404"
     inkscape:window-x="1026"
     inkscape:window-y="4"
     inkscape:window-maximized="1"
     inkscape:current-layer="svg522" />
  <circle
     cx="27"
     cy="27"
     r="27"
     fill="#2f373c"
     id="circle486" />
  <g
     filter="url(#filter0_d_936_907)"
     id="g490">
    <circle
       cx="27"
       cy="27"
       r="23"
       fill="url(#paint0_linear_936_907)"
       shape-rendering="crispEdges"
       id="circle488"
       style="fill:url(#paint0_linear_936_907)" />
  </g>
  <path
     d="M 31.5714,40 H 22.4286 C 21.5204,39.9963 20.6505,39.6395 20.0084,39.0074 19.3662,38.3753 19.0038,37.519 19,36.625 v -20.25 c 0.0038,-0.894 0.3662,-1.7503 1.0084,-2.3824 0.6421,-0.6321 1.512,-0.9889 2.4202,-0.9926 h 9.1428 c 0.9082,0.0037 1.7781,0.3605 2.4202,0.9926 0.6422,0.6321 1.0046,1.4884 1.0084,2.3824 v 20.25 c -0.0038,0.894 -0.3662,1.7503 -1.0084,2.3824 -0.6421,0.6321 -1.512,0.9889 -2.4202,0.9926 z m 1.1429,-23.625 c 0,-0.2984 -0.1204,-0.5845 -0.3347,-0.7955 C 32.1652,15.3685 31.8745,15.25 31.5714,15.25 h -9.1428 c -0.3031,0 -0.5938,0.1185 -0.8082,0.3295 -0.2143,0.211 -0.3347,0.4971 -0.3347,0.7955 v 20.25 c 0,0.2984 0.1204,0.5845 0.3347,0.7955 0.2144,0.211 0.5051,0.3295 0.8082,0.3295 h 9.1428 c 0.3031,0 0.5938,-0.1185 0.8082,-0.3295 0.2143,-0.211 0.3347,-0.4971 0.3347,-0.7955 z"
     fill="#8c9cb0"
     id="path492" />
  <circle
     cx="27"
     cy="35"
     r="1"
     fill="#8c9cb0"
     id="circle494" />
  <defs
     id="defs520">
    <filter
       id="filter0_d_936_907"
       x="0"
       y="4"
       width="54"
       height="54"
       filterUnits="userSpaceOnUse"
       color-interpolation-filters="sRGB">
      <feFlood
         flood-opacity="0"
         result="BackgroundImageFix"
         id="feFlood496" />
      <feColorMatrix
         in="SourceAlpha"
         type="matrix"
         values="0 0 0 0 0 0 0 0 0 0 0 0 0 0 0 0 0 0 127 0"
         result="hardAlpha"
         id="feColorMatrix498" />
      <feOffset
         dy="4"
         id="feOffset500" />
      <feGaussianBlur
         stdDeviation="2"
         id="feGaussianBlur502" />
      <feComposite
         in2="hardAlpha"
         operator="out"
         id="feComposite504" />
      <feColorMatrix
         type="matrix"
         values="0 0 0 0 0 0 0 0 0 0 0 0 0 0 0 0 0 0 0.25 0"
         id="feColorMatrix506" />
      <feBlend
         mode="normal"
         in2="BackgroundImageFix"
         result="effect1_dropShadow_936_907"
         id="feBlend508" />
      <feBlend
         mode="normal"
         in="SourceGraphic"
         in2="effect1_dropShadow_936_907"
         result="shape"
         id="feBlend510" />
    </filter>
    <linearGradient
       id="paint0_linear_936_907"
       x1="27"
       y1="4"
       x2="27"
       y2="50"
       gradientUnits="userSpaceOnUse">
      <stop
         stop-color="#292D30"
         id="stop513" />
      <stop
         offset="0.961458"
         stop-color="#313538"
         id="stop515" />
      <stop
         offset="1"
         stop-color="#292D30"
         stop-opacity="0"
         id="stop517" />
    </linearGradient>
  </defs>
</svg>
