<svg width="95" height="95" viewBox="0 0 95 95" fill="none" xmlns="http://www.w3.org/2000/svg">
<g filter="url(#filter0_d_445_413)">
<circle cx="47" cy="47" r="27" fill="#3E4041"/>
</g>
<g filter="url(#filter1_dd_445_413)">
<circle cx="47" cy="47" r="27" fill="#2F373C"/>
</g>
<g filter="url(#filter2_d_445_413)">
<ellipse cx="47" cy="46.5" rx="22.9245" ry="22.5" fill="url(#paint0_linear_445_413)"/>
</g>
<g clip-path="url(#clip0_445_413)">
<path d="M51.3302 58.25H43.6887C42.9296 58.2469 42.2026 57.9496 41.6659 57.4228C41.1291 56.8961 40.8262 56.1825 40.8231 55.4375V38.5625C40.8262 37.8175 41.1291 37.1039 41.6659 36.5772C42.2026 36.0504 42.9296 35.7531 43.6887 35.75H51.3302C52.0892 35.7531 52.8162 36.0504 53.353 36.5772C53.8897 37.1039 54.1926 37.8175 54.1957 38.5625V55.4375C54.1926 56.1825 53.8897 56.8961 53.353 57.4228C52.8162 57.9496 52.0892 58.2469 51.3302 58.25V58.25ZM52.2854 38.5625C52.2854 38.3139 52.1847 38.0754 52.0056 37.8996C51.8265 37.7238 51.5835 37.625 51.3302 37.625H43.6887C43.4353 37.625 43.1924 37.7238 43.0132 37.8996C42.8341 38.0754 42.7335 38.3139 42.7335 38.5625V55.4375C42.7335 55.6861 42.8341 55.9246 43.0132 56.1004C43.1924 56.2762 43.4353 56.375 43.6887 56.375H51.3302C51.5835 56.375 51.8265 56.2762 52.0056 56.1004C52.1847 55.9246 52.2854 55.6861 52.2854 55.4375V38.5625ZM58.0165 51.6875V42.3125C58.0165 42.0639 57.9159 41.8254 57.7367 41.6496C57.5576 41.4738 57.3146 41.375 57.0613 41.375C56.808 41.375 56.565 41.4738 56.3859 41.6496C56.2067 41.8254 56.1061 42.0639 56.1061 42.3125V51.6875C56.1061 51.9361 56.2067 52.1746 56.3859 52.3504C56.565 52.5262 56.808 52.625 57.0613 52.625C57.3146 52.625 57.5576 52.5262 57.7367 52.3504C57.9159 52.1746 58.0165 51.9361 58.0165 51.6875V51.6875ZM61.8372 49.8125V44.1875C61.8372 43.9389 61.7366 43.7004 61.5575 43.5246C61.3783 43.3488 61.1354 43.25 60.8821 43.25C60.6287 43.25 60.3858 43.3488 60.2066 43.5246C60.0275 43.7004 59.9269 43.9389 59.9269 44.1875V49.8125C59.9269 50.0611 60.0275 50.2996 60.2066 50.4754C60.3858 50.6512 60.6287 50.75 60.8821 50.75C61.1354 50.75 61.3783 50.6512 61.5575 50.4754C61.7366 50.2996 61.8372 50.0611 61.8372 49.8125V49.8125ZM38.9127 51.6875V42.3125C38.9127 42.0639 38.8121 41.8254 38.6329 41.6496C38.4538 41.4738 38.2109 41.375 37.9575 41.375C37.7042 41.375 37.4612 41.4738 37.2821 41.6496C37.103 41.8254 37.0023 42.0639 37.0023 42.3125V51.6875C37.0023 51.9361 37.103 52.1746 37.2821 52.3504C37.4612 52.5262 37.7042 52.625 37.9575 52.625C38.2109 52.625 38.4538 52.5262 38.6329 52.3504C38.8121 52.1746 38.9127 51.9361 38.9127 51.6875V51.6875ZM35.092 49.8125V44.1875C35.092 43.9389 34.9913 43.7004 34.8122 43.5246C34.6331 43.3488 34.3901 43.25 34.1368 43.25C33.8834 43.25 33.6405 43.3488 33.4613 43.5246C33.2822 43.7004 33.1816 43.9389 33.1816 44.1875V49.8125C33.1816 50.0611 33.2822 50.2996 33.4613 50.4754C33.6405 50.6512 33.8834 50.75 34.1368 50.75C34.3901 50.75 34.6331 50.6512 34.8122 50.4754C34.9913 50.2996 35.092 50.0611 35.092 49.8125V49.8125Z" fill="#8C9CB0"/>
</g>
<defs>
<filter id="filter0_d_445_413" x="5" y="5" width="90" height="90" filterUnits="userSpaceOnUse" color-interpolation-filters="sRGB">
<feFlood flood-opacity="0" result="BackgroundImageFix"/>
<feColorMatrix in="SourceAlpha" type="matrix" values="0 0 0 0 0 0 0 0 0 0 0 0 0 0 0 0 0 0 127 0" result="hardAlpha"/>
<feMorphology radius="3" operator="dilate" in="SourceAlpha" result="effect1_dropShadow_445_413"/>
<feOffset dx="3" dy="3"/>
<feGaussianBlur stdDeviation="7.5"/>
<feComposite in2="hardAlpha" operator="out"/>
<feColorMatrix type="matrix" values="0 0 0 0 0 0 0 0 0 0 0 0 0 0 0 0 0 0 0.25 0"/>
<feBlend mode="normal" in2="BackgroundImageFix" result="effect1_dropShadow_445_413"/>
<feBlend mode="normal" in="SourceGraphic" in2="effect1_dropShadow_445_413" result="shape"/>
</filter>
<filter id="filter1_dd_445_413" x="0" y="0" width="94" height="94" filterUnits="userSpaceOnUse" color-interpolation-filters="sRGB">
<feFlood flood-opacity="0" result="BackgroundImageFix"/>
<feColorMatrix in="SourceAlpha" type="matrix" values="0 0 0 0 0 0 0 0 0 0 0 0 0 0 0 0 0 0 127 0" result="hardAlpha"/>
<feMorphology radius="2" operator="dilate" in="SourceAlpha" result="effect1_dropShadow_445_413"/>
<feOffset dx="3" dy="3"/>
<feGaussianBlur stdDeviation="7.5"/>
<feComposite in2="hardAlpha" operator="out"/>
<feColorMatrix type="matrix" values="0 0 0 0 0 0 0 0 0 0 0 0 0 0 0 0 0 0 0.25 0"/>
<feBlend mode="normal" in2="BackgroundImageFix" result="effect1_dropShadow_445_413"/>
<feColorMatrix in="SourceAlpha" type="matrix" values="0 0 0 0 0 0 0 0 0 0 0 0 0 0 0 0 0 0 127 0" result="hardAlpha"/>
<feMorphology radius="2" operator="dilate" in="SourceAlpha" result="effect2_dropShadow_445_413"/>
<feOffset dx="-3" dy="-3"/>
<feGaussianBlur stdDeviation="7.5"/>
<feComposite in2="hardAlpha" operator="out"/>
<feColorMatrix type="matrix" values="0 0 0 0 1 0 0 0 0 1 0 0 0 0 1 0 0 0 0.25 0"/>
<feBlend mode="normal" in2="effect1_dropShadow_445_413" result="effect2_dropShadow_445_413"/>
<feBlend mode="normal" in="SourceGraphic" in2="effect2_dropShadow_445_413" result="shape"/>
</filter>
<filter id="filter2_d_445_413" x="20.0755" y="24" width="53.8491" height="53" filterUnits="userSpaceOnUse" color-interpolation-filters="sRGB">
<feFlood flood-opacity="0" result="BackgroundImageFix"/>
<feColorMatrix in="SourceAlpha" type="matrix" values="0 0 0 0 0 0 0 0 0 0 0 0 0 0 0 0 0 0 127 0" result="hardAlpha"/>
<feOffset dy="4"/>
<feGaussianBlur stdDeviation="2"/>
<feComposite in2="hardAlpha" operator="out"/>
<feColorMatrix type="matrix" values="0 0 0 0 0 0 0 0 0 0 0 0 0 0 0 0 0 0 0.25 0"/>
<feBlend mode="normal" in2="BackgroundImageFix" result="effect1_dropShadow_445_413"/>
<feBlend mode="normal" in="SourceGraphic" in2="effect1_dropShadow_445_413" result="shape"/>
</filter>
<linearGradient id="paint0_linear_445_413" x1="47" y1="24" x2="47" y2="69" gradientUnits="userSpaceOnUse">
<stop offset="0.279514" stop-color="#292D30"/>
<stop offset="1" stop-color="#323639"/>
</linearGradient>
<clipPath id="clip0_445_413">
<rect width="30.566" height="30" fill="white" transform="matrix(1 0 0 -1 31.2075 62)"/>
</clipPath>
</defs>
</svg>
